<mxfile host="app.diagrams.net" modified="2022-09-16T22:58:48.194Z" agent="5.0 (Windows NT 10.0; Win64; x64) AppleWebKit/537.36 (KHTML, like Gecko) Chrome/99.0.4844.51 Safari/537.36" etag="lYk0y3oSZ9r6jBH17qK_" version="20.3.2" type="github">
  <diagram id="FSRKXp5SrvSa2qCFVjRG" name="Metroid">
    <mxGraphModel dx="668" dy="378" grid="1" gridSize="10" guides="1" tooltips="1" connect="1" arrows="1" fold="1" page="1" pageScale="1" pageWidth="850" pageHeight="1100" math="0" shadow="0">
      <root>
        <mxCell id="0" />
        <mxCell id="1" parent="0" />
        <mxCell id="ykDgBymT8O5fsXE6vLRA-67" value="" style="rounded=0;whiteSpace=wrap;html=1;align=left;" parent="1" vertex="1">
          <mxGeometry x="80" y="280" width="360" height="40" as="geometry" />
        </mxCell>
        <mxCell id="ykDgBymT8O5fsXE6vLRA-70" value="Starting Point" style="text;html=1;align=center;verticalAlign=middle;resizable=0;points=[];autosize=1;strokeColor=none;fillColor=none;" parent="1" vertex="1">
          <mxGeometry x="210" y="285" width="100" height="30" as="geometry" />
        </mxCell>
        <mxCell id="ykDgBymT8O5fsXE6vLRA-74" value="" style="endArrow=block;startArrow=block;endFill=1;startFill=1;html=1;rounded=0;jumpSize=6;fillColor=#0050ef;strokeColor=#001DBC;" parent="1" edge="1">
          <mxGeometry width="160" relative="1" as="geometry">
            <mxPoint x="440" y="300" as="sourcePoint" />
            <mxPoint x="480" y="300" as="targetPoint" />
          </mxGeometry>
        </mxCell>
        <mxCell id="ykDgBymT8O5fsXE6vLRA-82" value="" style="rounded=0;whiteSpace=wrap;html=1;" parent="1" vertex="1">
          <mxGeometry x="480" y="280" width="80" height="200" as="geometry" />
        </mxCell>
        <mxCell id="ykDgBymT8O5fsXE6vLRA-83" value="" style="endArrow=block;startArrow=block;endFill=1;startFill=1;html=1;rounded=0;jumpSize=6;fillColor=#0050ef;strokeColor=#001DBC;" parent="1" target="ykDgBymT8O5fsXE6vLRA-84" edge="1">
          <mxGeometry width="160" relative="1" as="geometry">
            <mxPoint x="560" y="299.5" as="sourcePoint" />
            <mxPoint x="580" y="300" as="targetPoint" />
          </mxGeometry>
        </mxCell>
        <mxCell id="ykDgBymT8O5fsXE6vLRA-84" value="" style="html=1;" parent="1" vertex="1">
          <mxGeometry x="600" y="280" width="200" height="40" as="geometry" />
        </mxCell>
        <mxCell id="ykDgBymT8O5fsXE6vLRA-86" value="" style="html=1;" parent="1" vertex="1">
          <mxGeometry x="840" y="38" width="80" height="322" as="geometry" />
        </mxCell>
        <mxCell id="ykDgBymT8O5fsXE6vLRA-91" value="" style="html=1;" parent="1" vertex="1">
          <mxGeometry x="600" y="40" width="200" height="40" as="geometry" />
        </mxCell>
        <mxCell id="ykDgBymT8O5fsXE6vLRA-93" value="" style="html=1;" parent="1" vertex="1">
          <mxGeometry x="600" y="120" width="200" height="40" as="geometry" />
        </mxCell>
        <mxCell id="ykDgBymT8O5fsXE6vLRA-95" value="" style="html=1;" parent="1" vertex="1">
          <mxGeometry x="960" y="160" width="120" height="40" as="geometry" />
        </mxCell>
        <mxCell id="ykDgBymT8O5fsXE6vLRA-97" value="" style="html=1;" parent="1" vertex="1">
          <mxGeometry x="1120" y="40" width="80" height="320" as="geometry" />
        </mxCell>
        <mxCell id="ykDgBymT8O5fsXE6vLRA-99" value="" style="endArrow=block;startArrow=block;endFill=1;startFill=1;html=1;rounded=0;jumpSize=6;fillColor=#0050ef;strokeColor=#001DBC;entryX=0;entryY=0.5;entryDx=0;entryDy=0;" parent="1" target="ykDgBymT8O5fsXE6vLRA-100" edge="1">
          <mxGeometry width="160" relative="1" as="geometry">
            <mxPoint x="1200" y="300" as="sourcePoint" />
            <mxPoint x="1220" y="300" as="targetPoint" />
          </mxGeometry>
        </mxCell>
        <mxCell id="ykDgBymT8O5fsXE6vLRA-100" value="" style="html=1;" parent="1" vertex="1">
          <mxGeometry x="1240" y="280" width="240" height="40" as="geometry" />
        </mxCell>
        <mxCell id="ykDgBymT8O5fsXE6vLRA-101" value="Missiles" style="text;html=1;align=center;verticalAlign=middle;resizable=0;points=[];autosize=1;strokeColor=none;fillColor=none;fontSize=5;" parent="1" vertex="1">
          <mxGeometry x="1350" y="290" width="40" height="20" as="geometry" />
        </mxCell>
        <mxCell id="ykDgBymT8O5fsXE6vLRA-108" value="" style="html=1;" parent="1" vertex="1">
          <mxGeometry x="1240" y="80" width="200" height="40" as="geometry" />
        </mxCell>
        <mxCell id="ykDgBymT8O5fsXE6vLRA-109" value="Bombs &lt;br style=&quot;font-size: 8px;&quot;&gt;Necessary" style="text;html=1;align=center;verticalAlign=middle;resizable=0;points=[];autosize=1;strokeColor=none;fillColor=none;fontSize=8;" parent="1" vertex="1">
          <mxGeometry x="1310" y="80" width="60" height="30" as="geometry" />
        </mxCell>
        <mxCell id="ykDgBymT8O5fsXE6vLRA-110" value="" style="html=1;fontSize=8;" parent="1" vertex="1">
          <mxGeometry x="1240" y="160" width="160" height="40" as="geometry" />
        </mxCell>
        <mxCell id="ykDgBymT8O5fsXE6vLRA-111" value="" style="endArrow=block;startArrow=block;endFill=1;startFill=1;html=1;rounded=0;fontSize=8;jumpSize=6;fillColor=#0050ef;strokeColor=#001DBC;exitX=1;exitY=0.5;exitDx=0;exitDy=0;entryX=0;entryY=0.5;entryDx=0;entryDy=0;" parent="1" source="ykDgBymT8O5fsXE6vLRA-110" target="ykDgBymT8O5fsXE6vLRA-112" edge="1">
          <mxGeometry width="160" relative="1" as="geometry">
            <mxPoint x="1410" y="184.75" as="sourcePoint" />
            <mxPoint x="1430" y="185.12" as="targetPoint" />
          </mxGeometry>
        </mxCell>
        <mxCell id="ykDgBymT8O5fsXE6vLRA-112" value="" style="html=1;fontSize=8;" parent="1" vertex="1">
          <mxGeometry x="1440" y="160" width="80" height="40" as="geometry" />
        </mxCell>
        <mxCell id="ykDgBymT8O5fsXE6vLRA-115" value="" style="html=1;fontSize=8;" parent="1" vertex="1">
          <mxGeometry x="1560" y="160" width="160" height="40" as="geometry" />
        </mxCell>
        <mxCell id="ykDgBymT8O5fsXE6vLRA-117" value="" style="html=1;fontSize=8;" parent="1" vertex="1">
          <mxGeometry x="520" y="120" width="40" height="40" as="geometry" />
        </mxCell>
        <mxCell id="ykDgBymT8O5fsXE6vLRA-118" value="Long&lt;br style=&quot;font-size: 6px;&quot;&gt;Shot" style="text;html=1;align=center;verticalAlign=middle;resizable=0;points=[];autosize=1;strokeColor=none;fillColor=none;fontSize=6;" parent="1" vertex="1">
          <mxGeometry x="520" y="123" width="40" height="30" as="geometry" />
        </mxCell>
        <mxCell id="pubjrbatSM35sfyGwnmm-1" value="Bombs &lt;br style=&quot;font-size: 8px;&quot;&gt;Necessary" style="text;html=1;align=center;verticalAlign=middle;resizable=0;points=[];autosize=1;strokeColor=none;fillColor=none;fontSize=8;" parent="1" vertex="1">
          <mxGeometry x="490" y="300" width="60" height="30" as="geometry" />
        </mxCell>
        <mxCell id="pubjrbatSM35sfyGwnmm-3" value="" style="html=1;" parent="1" vertex="1">
          <mxGeometry x="1760" y="160" width="80" height="40" as="geometry" />
        </mxCell>
        <mxCell id="pubjrbatSM35sfyGwnmm-5" value="" style="html=1;" parent="1" vertex="1">
          <mxGeometry x="1880" y="160" width="200" height="40" as="geometry" />
        </mxCell>
        <mxCell id="pubjrbatSM35sfyGwnmm-6" value="Final &lt;br&gt;Boss" style="html=1;absoluteArcSize=0;" parent="1" vertex="1">
          <mxGeometry x="520" y="40" width="40" height="40" as="geometry" />
        </mxCell>
        <mxCell id="pubjrbatSM35sfyGwnmm-7" value="E-Tank (1 / ?)" style="text;html=1;align=center;verticalAlign=middle;resizable=0;points=[];autosize=1;strokeColor=none;fillColor=none;" parent="1" vertex="1">
          <mxGeometry x="1970" y="170" width="100" height="30" as="geometry" />
        </mxCell>
        <mxCell id="pubjrbatSM35sfyGwnmm-10" value="" style="html=1;" parent="1" vertex="1">
          <mxGeometry x="2120" y="40" width="80" height="210" as="geometry" />
        </mxCell>
        <mxCell id="pubjrbatSM35sfyGwnmm-13" value="" style="html=1;" parent="1" vertex="1">
          <mxGeometry x="2000" y="80" width="80" height="40" as="geometry" />
        </mxCell>
        <mxCell id="pubjrbatSM35sfyGwnmm-14" value="Bombs" style="html=1;" parent="1" vertex="1">
          <mxGeometry x="1920" y="80" width="40" height="40" as="geometry" />
        </mxCell>
        <mxCell id="pubjrbatSM35sfyGwnmm-18" value="" style="html=1;fontSize=7;" parent="1" vertex="1">
          <mxGeometry x="1480" y="80" width="40" height="40" as="geometry" />
        </mxCell>
        <mxCell id="pubjrbatSM35sfyGwnmm-22" value="Missiles (2 / ?)" style="html=1;fontSize=7;" parent="1" vertex="1">
          <mxGeometry x="1560" y="80" width="80" height="40" as="geometry" />
        </mxCell>
        <mxCell id="pubjrbatSM35sfyGwnmm-23" value="" style="endArrow=block;startArrow=block;endFill=1;startFill=1;html=1;rounded=0;fontSize=7;fillColor=#0050ef;strokeColor=#001DBC;entryX=0;entryY=0.5;entryDx=0;entryDy=0;exitX=1;exitY=0.7;exitDx=0;exitDy=0;exitPerimeter=0;" parent="1" source="ykDgBymT8O5fsXE6vLRA-82" target="pubjrbatSM35sfyGwnmm-24" edge="1">
          <mxGeometry width="160" relative="1" as="geometry">
            <mxPoint x="580" y="420" as="sourcePoint" />
            <mxPoint x="580" y="420" as="targetPoint" />
          </mxGeometry>
        </mxCell>
        <mxCell id="pubjrbatSM35sfyGwnmm-24" value="Elevator" style="html=1;fontSize=7;" parent="1" vertex="1">
          <mxGeometry x="600" y="400" width="40" height="40" as="geometry" />
        </mxCell>
        <mxCell id="pubjrbatSM35sfyGwnmm-27" value="" style="edgeStyle=orthogonalEdgeStyle;rounded=0;jumpSize=6;orthogonalLoop=1;jettySize=auto;html=1;exitX=0.5;exitY=1;exitDx=0;exitDy=0;entryX=0.5;entryY=0;entryDx=0;entryDy=0;" parent="1" source="pubjrbatSM35sfyGwnmm-24" target="pubjrbatSM35sfyGwnmm-28" edge="1">
          <mxGeometry relative="1" as="geometry">
            <mxPoint x="609.6" y="510" as="sourcePoint" />
            <mxPoint x="609.6" y="530" as="targetPoint" />
          </mxGeometry>
        </mxCell>
        <mxCell id="pubjrbatSM35sfyGwnmm-28" value="" style="html=1;fontSize=7;" parent="1" vertex="1">
          <mxGeometry x="560" y="520" width="120" height="280" as="geometry" />
        </mxCell>
        <mxCell id="pubjrbatSM35sfyGwnmm-30" value="" style="endArrow=block;startArrow=block;endFill=1;startFill=1;html=1;rounded=0;fontSize=7;fillColor=#e51400;strokeColor=#B20000;entryX=0;entryY=0.5;entryDx=0;entryDy=0;" parent="1" target="sY0v4tnTx304ZdgRRmDI-1" edge="1">
          <mxGeometry width="160" relative="1" as="geometry">
            <mxPoint x="680" y="579.71" as="sourcePoint" />
            <mxPoint x="710" y="580" as="targetPoint" />
          </mxGeometry>
        </mxCell>
        <mxCell id="pubjrbatSM35sfyGwnmm-31" value="" style="html=1;fontSize=7;" parent="1" vertex="1">
          <mxGeometry x="410" y="560" width="110" height="40" as="geometry" />
        </mxCell>
        <mxCell id="pubjrbatSM35sfyGwnmm-32" value="Missiles" style="text;html=1;align=center;verticalAlign=middle;resizable=0;points=[];autosize=1;strokeColor=none;fillColor=none;fontSize=5;" parent="1" vertex="1">
          <mxGeometry x="440" y="570" width="40" height="20" as="geometry" />
        </mxCell>
        <mxCell id="sY0v4tnTx304ZdgRRmDI-1" value="" style="html=1;" parent="1" vertex="1">
          <mxGeometry x="720" y="560" width="120" height="40" as="geometry" />
        </mxCell>
        <mxCell id="sY0v4tnTx304ZdgRRmDI-2" value="&lt;font style=&quot;font-size: 5px;&quot;&gt;Missiles&lt;/font&gt;" style="text;html=1;align=center;verticalAlign=middle;resizable=0;points=[];autosize=1;strokeColor=none;fillColor=none;fontSize=3;" parent="1" vertex="1">
          <mxGeometry x="755" y="570" width="40" height="20" as="geometry" />
        </mxCell>
        <mxCell id="ykDgBymT8O5fsXE6vLRA-85" value="" style="endArrow=block;startArrow=block;endFill=1;startFill=1;html=1;rounded=0;jumpSize=6;fillColor=#0050ef;strokeColor=#001DBC;entryX=0;entryY=0.813;entryDx=0;entryDy=0;entryPerimeter=0;" parent="1" source="ykDgBymT8O5fsXE6vLRA-84" target="ykDgBymT8O5fsXE6vLRA-86" edge="1">
          <mxGeometry width="160" relative="1" as="geometry">
            <mxPoint x="800" y="299.64000000000004" as="sourcePoint" />
            <mxPoint x="820" y="240" as="targetPoint" />
            <Array as="points">
              <mxPoint x="810" y="300" />
            </Array>
          </mxGeometry>
        </mxCell>
        <mxCell id="sY0v4tnTx304ZdgRRmDI-6" value="" style="endArrow=block;startArrow=block;endFill=1;startFill=1;html=1;rounded=0;fontSize=5;fillColor=#e51400;strokeColor=#B20000;" parent="1" edge="1">
          <mxGeometry width="160" relative="1" as="geometry">
            <mxPoint x="560" y="140" as="sourcePoint" />
            <mxPoint x="600" y="140" as="targetPoint" />
          </mxGeometry>
        </mxCell>
        <mxCell id="sY0v4tnTx304ZdgRRmDI-7" value="" style="endArrow=block;startArrow=block;endFill=1;startFill=1;html=1;rounded=0;fontSize=5;fillColor=#0050ef;strokeColor=#001DBC;" parent="1" edge="1">
          <mxGeometry width="160" relative="1" as="geometry">
            <mxPoint x="920" y="180" as="sourcePoint" />
            <mxPoint x="960" y="179.83" as="targetPoint" />
          </mxGeometry>
        </mxCell>
        <mxCell id="sY0v4tnTx304ZdgRRmDI-8" value="" style="endArrow=block;startArrow=block;endFill=1;startFill=1;html=1;rounded=0;fontSize=5;fillColor=#0050ef;strokeColor=#001DBC;" parent="1" edge="1">
          <mxGeometry width="160" relative="1" as="geometry">
            <mxPoint x="800" y="140" as="sourcePoint" />
            <mxPoint x="840" y="140" as="targetPoint" />
          </mxGeometry>
        </mxCell>
        <mxCell id="sY0v4tnTx304ZdgRRmDI-10" value="" style="endArrow=block;startArrow=block;endFill=1;startFill=1;html=1;rounded=0;fontSize=5;fillColor=#0050ef;strokeColor=#001DBC;" parent="1" edge="1">
          <mxGeometry width="160" relative="1" as="geometry">
            <mxPoint x="800" y="59.83" as="sourcePoint" />
            <mxPoint x="840" y="60" as="targetPoint" />
          </mxGeometry>
        </mxCell>
        <mxCell id="sY0v4tnTx304ZdgRRmDI-12" value="" style="endArrow=block;startArrow=block;endFill=1;startFill=1;html=1;rounded=0;fontSize=5;fillColor=#e51400;strokeColor=#B20000;exitX=1;exitY=0.5;exitDx=0;exitDy=0;" parent="1" source="pubjrbatSM35sfyGwnmm-6" edge="1">
          <mxGeometry width="160" relative="1" as="geometry">
            <mxPoint x="520" y="60" as="sourcePoint" />
            <mxPoint x="600" y="59.83" as="targetPoint" />
          </mxGeometry>
        </mxCell>
        <mxCell id="sY0v4tnTx304ZdgRRmDI-14" value="" style="endArrow=block;startArrow=block;endFill=1;startFill=1;html=1;rounded=0;fontSize=5;fillColor=#0050ef;strokeColor=#001DBC;" parent="1" edge="1">
          <mxGeometry width="160" relative="1" as="geometry">
            <mxPoint x="520" y="579.8299999999999" as="sourcePoint" />
            <mxPoint x="560" y="580.17" as="targetPoint" />
          </mxGeometry>
        </mxCell>
        <mxCell id="sY0v4tnTx304ZdgRRmDI-17" value="" style="html=1;fontSize=10;" parent="1" vertex="1">
          <mxGeometry x="410" y="640" width="110" height="40" as="geometry" />
        </mxCell>
        <mxCell id="sY0v4tnTx304ZdgRRmDI-18" value="" style="endArrow=block;startArrow=block;endFill=1;startFill=1;html=1;rounded=0;fontSize=10;fillColor=#0050ef;strokeColor=#001DBC;" parent="1" edge="1">
          <mxGeometry width="160" relative="1" as="geometry">
            <mxPoint x="520" y="659.71" as="sourcePoint" />
            <mxPoint x="560" y="660" as="targetPoint" />
          </mxGeometry>
        </mxCell>
        <mxCell id="sY0v4tnTx304ZdgRRmDI-21" value="" style="edgeStyle=none;rounded=0;orthogonalLoop=1;jettySize=auto;html=1;fontSize=10;" parent="1" source="sY0v4tnTx304ZdgRRmDI-19" target="pubjrbatSM35sfyGwnmm-28" edge="1">
          <mxGeometry relative="1" as="geometry" />
        </mxCell>
        <mxCell id="sY0v4tnTx304ZdgRRmDI-19" value="" style="html=1;fontSize=10;" parent="1" vertex="1">
          <mxGeometry x="720" y="640" width="120" height="40" as="geometry" />
        </mxCell>
        <mxCell id="sY0v4tnTx304ZdgRRmDI-20" value="" style="endArrow=block;startArrow=block;endFill=1;startFill=1;html=1;rounded=0;fontSize=10;fillColor=#e51400;strokeColor=#B20000;" parent="1" edge="1">
          <mxGeometry width="160" relative="1" as="geometry">
            <mxPoint x="680" y="660" as="sourcePoint" />
            <mxPoint x="720" y="660" as="targetPoint" />
          </mxGeometry>
        </mxCell>
        <mxCell id="sY0v4tnTx304ZdgRRmDI-22" value="Energy&lt;br style=&quot;font-size: 5px;&quot;&gt;Tank" style="text;html=1;align=center;verticalAlign=middle;resizable=0;points=[];autosize=1;strokeColor=none;fillColor=none;fontSize=5;" parent="1" vertex="1">
          <mxGeometry x="800" y="640" width="40" height="30" as="geometry" />
        </mxCell>
        <mxCell id="sY0v4tnTx304ZdgRRmDI-24" value="" style="html=1;fontSize=5;" parent="1" vertex="1">
          <mxGeometry x="440" y="760" width="80" height="40" as="geometry" />
        </mxCell>
        <mxCell id="sY0v4tnTx304ZdgRRmDI-26" value="" style="endArrow=block;startArrow=block;endFill=1;startFill=1;html=1;rounded=0;fontSize=5;fillColor=#0050ef;strokeColor=#001DBC;" parent="1" edge="1">
          <mxGeometry width="160" relative="1" as="geometry">
            <mxPoint x="520" y="780" as="sourcePoint" />
            <mxPoint x="560" y="780.14" as="targetPoint" />
          </mxGeometry>
        </mxCell>
        <mxCell id="sY0v4tnTx304ZdgRRmDI-27" value="" style="endArrow=block;startArrow=block;endFill=1;startFill=1;html=1;rounded=0;fontSize=5;fillColor=#0050ef;strokeColor=#001DBC;exitX=1;exitY=0.833;exitDx=0;exitDy=0;exitPerimeter=0;" parent="1" edge="1" source="ePbxnIUEoKC8PJjRoNOl-2">
          <mxGeometry width="160" relative="1" as="geometry">
            <mxPoint x="400" y="779.79" as="sourcePoint" />
            <mxPoint x="440" y="779.62" as="targetPoint" />
          </mxGeometry>
        </mxCell>
        <mxCell id="sY0v4tnTx304ZdgRRmDI-28" value="" style="endArrow=block;startArrow=block;endFill=1;startFill=1;html=1;rounded=0;fontSize=5;fillColor=#0050ef;strokeColor=#001DBC;" parent="1" edge="1">
          <mxGeometry width="160" relative="1" as="geometry">
            <mxPoint x="1080" y="179.62" as="sourcePoint" />
            <mxPoint x="1120" y="180" as="targetPoint" />
          </mxGeometry>
        </mxCell>
        <mxCell id="sY0v4tnTx304ZdgRRmDI-29" value="" style="endArrow=block;startArrow=block;endFill=1;startFill=1;html=1;rounded=0;fontSize=5;fillColor=#0050ef;strokeColor=#001DBC;" parent="1" edge="1">
          <mxGeometry width="160" relative="1" as="geometry">
            <mxPoint x="1200" y="179.62" as="sourcePoint" />
            <mxPoint x="1240" y="180" as="targetPoint" />
          </mxGeometry>
        </mxCell>
        <mxCell id="sY0v4tnTx304ZdgRRmDI-30" value="" style="endArrow=block;startArrow=block;endFill=1;startFill=1;html=1;rounded=0;fontSize=5;fillColor=#0050ef;strokeColor=#001DBC;" parent="1" edge="1">
          <mxGeometry width="160" relative="1" as="geometry">
            <mxPoint x="1480" y="300" as="sourcePoint" />
            <mxPoint x="1520" y="300" as="targetPoint" />
          </mxGeometry>
        </mxCell>
        <mxCell id="sY0v4tnTx304ZdgRRmDI-31" value="" style="html=1;fontSize=5;" parent="1" vertex="1">
          <mxGeometry x="1520" y="280" width="40" height="40" as="geometry" />
        </mxCell>
        <mxCell id="sY0v4tnTx304ZdgRRmDI-32" value="Elevator" style="text;html=1;align=center;verticalAlign=middle;resizable=0;points=[];autosize=1;strokeColor=none;fillColor=none;fontSize=5;" parent="1" vertex="1">
          <mxGeometry x="1520" y="290" width="40" height="20" as="geometry" />
        </mxCell>
        <mxCell id="sY0v4tnTx304ZdgRRmDI-34" value="" style="endArrow=block;endFill=1;html=1;edgeStyle=orthogonalEdgeStyle;align=left;verticalAlign=top;rounded=0;fontSize=5;" parent="1" edge="1">
          <mxGeometry x="-1" relative="1" as="geometry">
            <mxPoint x="1540" y="320" as="sourcePoint" />
            <mxPoint x="1540" y="360" as="targetPoint" />
            <Array as="points">
              <mxPoint x="1540" y="360" />
              <mxPoint x="1540" y="360" />
            </Array>
          </mxGeometry>
        </mxCell>
        <mxCell id="sY0v4tnTx304ZdgRRmDI-36" value="" style="html=1;fontSize=5;" parent="1" vertex="1">
          <mxGeometry x="1480" y="360" width="120" height="80" as="geometry" />
        </mxCell>
        <mxCell id="sY0v4tnTx304ZdgRRmDI-37" value="" style="endArrow=block;startArrow=block;endFill=1;startFill=1;html=1;rounded=0;fontSize=5;fillColor=#0050ef;strokeColor=#001DBC;" parent="1" edge="1">
          <mxGeometry width="160" relative="1" as="geometry">
            <mxPoint x="1440" y="420" as="sourcePoint" />
            <mxPoint x="1480" y="419.73" as="targetPoint" />
          </mxGeometry>
        </mxCell>
        <mxCell id="sY0v4tnTx304ZdgRRmDI-38" value="" style="endArrow=block;startArrow=block;endFill=1;startFill=1;html=1;rounded=0;fontSize=5;fillColor=#0050ef;strokeColor=#001DBC;" parent="1" edge="1">
          <mxGeometry width="160" relative="1" as="geometry">
            <mxPoint x="1600" y="419.6" as="sourcePoint" />
            <mxPoint x="1640" y="420" as="targetPoint" />
          </mxGeometry>
        </mxCell>
        <mxCell id="sY0v4tnTx304ZdgRRmDI-39" value="" style="html=1;fontSize=5;" parent="1" vertex="1">
          <mxGeometry x="1240" y="400" width="200" height="40" as="geometry" />
        </mxCell>
        <mxCell id="sY0v4tnTx304ZdgRRmDI-40" value="Missiles" style="text;html=1;align=center;verticalAlign=middle;resizable=0;points=[];autosize=1;strokeColor=none;fillColor=none;fontSize=5;" parent="1" vertex="1">
          <mxGeometry x="1320" y="410" width="40" height="20" as="geometry" />
        </mxCell>
        <mxCell id="sY0v4tnTx304ZdgRRmDI-43" value="" style="endArrow=block;startArrow=block;endFill=1;startFill=1;html=1;rounded=0;fontSize=5;entryX=0;entryY=0.5;entryDx=0;entryDy=0;fillColor=#0050ef;strokeColor=#001DBC;" parent="1" target="sY0v4tnTx304ZdgRRmDI-39" edge="1">
          <mxGeometry width="160" relative="1" as="geometry">
            <mxPoint x="1200" y="420" as="sourcePoint" />
            <mxPoint x="1182.2222222222224" y="440" as="targetPoint" />
          </mxGeometry>
        </mxCell>
        <mxCell id="sY0v4tnTx304ZdgRRmDI-45" value="" style="html=1;fontSize=5;" parent="1" vertex="1">
          <mxGeometry x="1120" y="400" width="80" height="160" as="geometry" />
        </mxCell>
        <mxCell id="sY0v4tnTx304ZdgRRmDI-46" value="" style="endArrow=block;startArrow=block;endFill=1;startFill=1;html=1;rounded=0;fontSize=5;fillColor=#0050ef;strokeColor=#001DBC;" parent="1" edge="1">
          <mxGeometry width="160" relative="1" as="geometry">
            <mxPoint x="1200" y="499.67" as="sourcePoint" />
            <mxPoint x="1240" y="500" as="targetPoint" />
          </mxGeometry>
        </mxCell>
        <mxCell id="sY0v4tnTx304ZdgRRmDI-47" value="" style="html=1;fontSize=5;" parent="1" vertex="1">
          <mxGeometry x="1240" y="480" width="120" height="40" as="geometry" />
        </mxCell>
        <mxCell id="sY0v4tnTx304ZdgRRmDI-48" value="Missiles" style="text;html=1;align=center;verticalAlign=middle;resizable=0;points=[];autosize=1;strokeColor=none;fillColor=none;fontSize=5;" parent="1" vertex="1">
          <mxGeometry x="1320" y="490" width="40" height="20" as="geometry" />
        </mxCell>
        <mxCell id="sY0v4tnTx304ZdgRRmDI-49" value="" style="html=1;fontSize=5;" parent="1" vertex="1">
          <mxGeometry x="1640" y="400" width="200" height="40" as="geometry" />
        </mxCell>
        <mxCell id="sY0v4tnTx304ZdgRRmDI-50" value="" style="endArrow=block;startArrow=block;endFill=1;startFill=1;html=1;rounded=0;fontSize=5;fillColor=#0050ef;strokeColor=#001DBC;" parent="1" edge="1">
          <mxGeometry width="160" relative="1" as="geometry">
            <mxPoint x="1840" y="419.67" as="sourcePoint" />
            <mxPoint x="1880" y="420" as="targetPoint" />
          </mxGeometry>
        </mxCell>
        <mxCell id="sY0v4tnTx304ZdgRRmDI-51" value="" style="html=1;fontSize=5;" parent="1" vertex="1">
          <mxGeometry x="1880" y="320" width="80" height="200" as="geometry" />
        </mxCell>
        <mxCell id="sY0v4tnTx304ZdgRRmDI-52" value="" style="endArrow=block;startArrow=block;endFill=1;startFill=1;html=1;rounded=0;fontSize=5;fillColor=#0050ef;strokeColor=#001DBC;" parent="1" edge="1">
          <mxGeometry width="160" relative="1" as="geometry">
            <mxPoint x="1840" y="500" as="sourcePoint" />
            <mxPoint x="1880" y="499.67" as="targetPoint" />
          </mxGeometry>
        </mxCell>
        <mxCell id="sY0v4tnTx304ZdgRRmDI-53" value="" style="html=1;fontSize=5;" parent="1" vertex="1">
          <mxGeometry x="1730" y="480" width="110" height="40" as="geometry" />
        </mxCell>
        <mxCell id="sY0v4tnTx304ZdgRRmDI-56" value="Need&lt;br&gt;Freeze" style="text;html=1;align=center;verticalAlign=middle;resizable=0;points=[];autosize=1;strokeColor=none;fillColor=none;fontSize=5;" parent="1" vertex="1">
          <mxGeometry x="1900" y="330" width="40" height="30" as="geometry" />
        </mxCell>
        <mxCell id="sY0v4tnTx304ZdgRRmDI-57" value="" style="endArrow=block;startArrow=block;endFill=1;startFill=1;html=1;rounded=0;fontSize=5;fillColor=#0050ef;strokeColor=#001DBC;" parent="1" edge="1">
          <mxGeometry width="160" relative="1" as="geometry">
            <mxPoint x="1840" y="340" as="sourcePoint" />
            <mxPoint x="1880" y="339.67" as="targetPoint" />
          </mxGeometry>
        </mxCell>
        <mxCell id="sY0v4tnTx304ZdgRRmDI-58" value="Morphing&lt;br&gt;Ball" style="text;html=1;align=center;verticalAlign=middle;resizable=0;points=[];autosize=1;strokeColor=none;fillColor=none;fontSize=5;" parent="1" vertex="1">
          <mxGeometry x="120" y="290" width="40" height="30" as="geometry" />
        </mxCell>
        <mxCell id="sY0v4tnTx304ZdgRRmDI-60" value="" style="endArrow=block;startArrow=block;endFill=1;startFill=1;html=1;rounded=0;fontSize=5;fillColor=#0050ef;strokeColor=#001DBC;" parent="1" edge="1">
          <mxGeometry width="160" relative="1" as="geometry">
            <mxPoint x="1200" y="99.66" as="sourcePoint" />
            <mxPoint x="1240" y="100" as="targetPoint" />
          </mxGeometry>
        </mxCell>
        <mxCell id="sY0v4tnTx304ZdgRRmDI-61" value="" style="endArrow=block;startArrow=block;endFill=1;startFill=1;html=1;rounded=0;fontSize=5;fillColor=#0050ef;strokeColor=#001DBC;" parent="1" edge="1">
          <mxGeometry width="160" relative="1" as="geometry">
            <mxPoint x="1440" y="99.66" as="sourcePoint" />
            <mxPoint x="1480" y="100" as="targetPoint" />
          </mxGeometry>
        </mxCell>
        <mxCell id="sY0v4tnTx304ZdgRRmDI-62" value="" style="endArrow=block;startArrow=block;endFill=1;startFill=1;html=1;rounded=0;fontSize=5;fillColor=#0050ef;strokeColor=#001DBC;" parent="1" edge="1">
          <mxGeometry width="160" relative="1" as="geometry">
            <mxPoint x="1520" y="99.66" as="sourcePoint" />
            <mxPoint x="1560" y="100" as="targetPoint" />
          </mxGeometry>
        </mxCell>
        <mxCell id="sY0v4tnTx304ZdgRRmDI-63" value="" style="endArrow=block;startArrow=block;endFill=1;startFill=1;html=1;rounded=0;fontSize=5;entryX=0;entryY=0.5;entryDx=0;entryDy=0;fillColor=#e51400;strokeColor=#B20000;" parent="1" target="pubjrbatSM35sfyGwnmm-13" edge="1">
          <mxGeometry width="160" relative="1" as="geometry">
            <mxPoint x="1960" y="99.66" as="sourcePoint" />
            <mxPoint x="2120" y="99.66" as="targetPoint" />
          </mxGeometry>
        </mxCell>
        <mxCell id="sY0v4tnTx304ZdgRRmDI-65" value="" style="endArrow=block;startArrow=block;endFill=1;startFill=1;html=1;rounded=0;fontSize=5;fillColor=#0050ef;strokeColor=#001DBC;" parent="1" edge="1">
          <mxGeometry width="160" relative="1" as="geometry">
            <mxPoint x="2080" y="99.66" as="sourcePoint" />
            <mxPoint x="2120" y="100" as="targetPoint" />
          </mxGeometry>
        </mxCell>
        <mxCell id="sY0v4tnTx304ZdgRRmDI-67" value="Needs&lt;br&gt;Freeze" style="text;html=1;align=center;verticalAlign=middle;resizable=0;points=[];autosize=1;strokeColor=none;fillColor=none;fontSize=5;" parent="1" vertex="1">
          <mxGeometry x="2140" y="50" width="40" height="30" as="geometry" />
        </mxCell>
        <mxCell id="sY0v4tnTx304ZdgRRmDI-68" value="" style="endArrow=block;startArrow=block;endFill=1;startFill=1;html=1;rounded=0;fontSize=5;fillColor=#0050ef;strokeColor=#001DBC;" parent="1" edge="1">
          <mxGeometry width="160" relative="1" as="geometry">
            <mxPoint x="1520" y="179.75" as="sourcePoint" />
            <mxPoint x="1560" y="180" as="targetPoint" />
          </mxGeometry>
        </mxCell>
        <mxCell id="sY0v4tnTx304ZdgRRmDI-70" value="" style="endArrow=block;startArrow=block;endFill=1;startFill=1;html=1;rounded=0;fontSize=5;fillColor=#0050ef;strokeColor=#001DBC;" parent="1" edge="1">
          <mxGeometry width="160" relative="1" as="geometry">
            <mxPoint x="1840" y="179.75" as="sourcePoint" />
            <mxPoint x="1880" y="180" as="targetPoint" />
            <Array as="points" />
          </mxGeometry>
        </mxCell>
        <mxCell id="sY0v4tnTx304ZdgRRmDI-71" value="" style="endArrow=block;startArrow=block;endFill=1;startFill=1;html=1;rounded=0;fontSize=5;fillColor=#0050ef;strokeColor=#001DBC;" parent="1" edge="1">
          <mxGeometry width="160" relative="1" as="geometry">
            <mxPoint x="1720" y="179.75" as="sourcePoint" />
            <mxPoint x="1760" y="180" as="targetPoint" />
          </mxGeometry>
        </mxCell>
        <mxCell id="sY0v4tnTx304ZdgRRmDI-74" value="" style="endArrow=block;startArrow=block;endFill=1;startFill=1;html=1;rounded=0;fontSize=5;exitX=1;exitY=0.5;exitDx=0;exitDy=0;fillColor=#0050ef;strokeColor=#001DBC;" parent="1" source="pubjrbatSM35sfyGwnmm-5" edge="1">
          <mxGeometry width="160" relative="1" as="geometry">
            <mxPoint x="1960" y="179.75" as="sourcePoint" />
            <mxPoint x="2120" y="179.75" as="targetPoint" />
          </mxGeometry>
        </mxCell>
        <mxCell id="ePbxnIUEoKC8PJjRoNOl-2" value="" style="html=1;" vertex="1" parent="1">
          <mxGeometry x="200" y="680" width="80" height="120" as="geometry" />
        </mxCell>
        <mxCell id="ePbxnIUEoKC8PJjRoNOl-5" value="" style="endArrow=block;startArrow=block;endFill=1;startFill=1;html=1;rounded=0;fillColor=#0050ef;strokeColor=#001DBC;" edge="1" parent="1">
          <mxGeometry width="160" relative="1" as="geometry">
            <mxPoint x="280" y="699.62" as="sourcePoint" />
            <mxPoint x="320" y="700" as="targetPoint" />
          </mxGeometry>
        </mxCell>
        <mxCell id="ePbxnIUEoKC8PJjRoNOl-6" value="" style="html=1;" vertex="1" parent="1">
          <mxGeometry x="320" y="680" width="80" height="40" as="geometry" />
        </mxCell>
        <mxCell id="ePbxnIUEoKC8PJjRoNOl-7" value="" style="endArrow=block;startArrow=block;endFill=1;startFill=1;html=1;rounded=0;fillColor=#0050ef;strokeColor=#001DBC;" edge="1" parent="1">
          <mxGeometry width="160" relative="1" as="geometry">
            <mxPoint x="840" y="580" as="sourcePoint" />
            <mxPoint x="880" y="580" as="targetPoint" />
          </mxGeometry>
        </mxCell>
      </root>
    </mxGraphModel>
  </diagram>
</mxfile>
